<svg xmlns="http://www.w3.org/2000/svg" xmlns:xlink="http://www.w3.org/1999/xlink" version="1.1" id="Layer_1" x="0px" y="0px" width="381.285px" height="139.812px" viewBox="0 0 381.285 139.812" enable-background="new 0 0 381.285 139.812" xml:space="preserve">
  <g>
    <g>
      <g>
        <g>
          <polygon fill="#FFFFFF" points="104.695,81.433 65.361,81.433 65.361,68.791 109.972,68.791 121.83,40.382 32.123,40.382       32.123,81.433 0,81.433 0,107.285 32.123,107.285 32.123,139.812 65.361,139.812 65.361,107.285 93.904,107.285     "/>
        </g>
        <g>
          <path fill="#FFFFFF" d="M381.285 40.382v5.233h-0.73v-4.01l-1.869 2.837h-0.102l-1.852-2.837v4.01h-0.748v-5.233h0.798l1.869 2.871 1.853-2.871H381.285zM370.716 41.096h1.683v4.52h0.747v-4.52h1.682v-0.713h-4.111V41.096z"/>
        </g>
        <g>
          <polygon fill="#FFFFFF" points="312.69,101.746 361.269,101.746 361.269,77.739 312.69,77.739 312.69,68.506 364.82,68.506       364.82,67.655 364.82,40.382 364.82,40.382 181.758,40.382 193.527,68.506 215.657,68.506 215.657,139.812 248.895,139.812       248.895,68.506 280.021,68.506 280.021,139.812 365.53,139.812 365.53,112.54 312.69,112.54     "/>
        </g>
        <g>
          <path fill="#FFFFFF" d="M152.185 0l-58.36 139.812c12.253-2.707 24.819-4.582 37.637-5.557l2.968-7.75h34.8l3.033 7.705c13.041 0.961 25.823 2.85 38.283 5.602L168.662 39.717 152.185 0zM142.81 102.927l9.091-24.147 9.091 24.147H142.81z"/>
        </g>
        <g>
          <g>
            <path fill="#FFFFFF" d="M182.718 11.7h7.561c4.464 0 7.513 1.992 7.513 5.977v0.048c0 4.057-3.097 6.217-7.633 6.217h-1.824v4.561h-5.617V11.7zM189.846 19.934c1.44 0 2.4-0.648 2.4-1.849v-0.048c0-1.225-0.888-1.849-2.376-1.849h-1.536v3.745H189.846z"/>
          </g>
          <g>
            <path fill="#FFFFFF" d="M200.406 20.149v-0.048c0-4.873 4.008-8.761 9.192-8.761s9.146 3.84 9.146 8.712v0.049c0 4.872-4.009 8.761-9.193 8.761S200.406 25.021 200.406 20.149zM213.079 20.149v-0.048c0-1.992-1.368-3.793-3.528-3.793 -2.136 0-3.48 1.776-3.48 3.744v0.049c0 1.992 1.368 3.792 3.528 3.792C211.735 23.894 213.079 22.117 213.079 20.149z"/>
          </g>
          <g>
            <path fill="#FFFFFF" d="M220.158 11.7h5.881l2.376 8.065 2.712-8.113h4.849l2.712 8.113 2.377-8.065h5.784l-5.497 16.922h-4.896l-2.953-8.353 -2.952 8.353h-4.896L220.158 11.7z"/>
          </g>
          <g>
            <path fill="#FFFFFF" d="M249.607 11.7h14.329v4.608h-8.809v1.704h8.209v4.057h-8.209v1.824h8.929v4.608h-14.449V11.7z"/>
          </g>
          <g>
            <path fill="#FFFFFF" d="M267.367 11.7h8.209c2.977 0 4.872 0.744 6.049 1.921 1.008 1.008 1.536 2.256 1.536 3.984v0.048c0 2.448-1.272 4.152-3.312 5.136l3.912 5.713h-6.408l-3.169-4.801h-1.2v4.801h-5.616V11.7zM275.408 19.693c1.344 0 2.16-0.601 2.16-1.632v-0.049c0-1.08-0.84-1.607-2.137-1.607h-2.448v3.288H275.408z"/>
          </g>
          <g>
            <path fill="#FFFFFF" d="M286.327 11.7h14.329v4.608h-8.809v1.704h8.209v4.057h-8.209v1.824h8.929v4.608h-14.449V11.7z"/>
          </g>
          <g>
            <path fill="#FFFFFF" d="M304.086 11.7h6.433c6.673 0 10.009 3.289 10.009 8.257v0.048c0 4.969-3.408 8.497-10.201 8.497h-6.24V11.7zM309.703 16.597v7.009h0.937c2.568 0 4.225-1.056 4.225-3.48v-0.048c0-2.424-1.656-3.48-4.225-3.48H309.703z"/>
          </g>
          <g>
            <path fill="#FFFFFF" d="M330.727 11.7h9.409c2.328 0 3.792 0.528 4.776 1.513 0.6 0.6 1.032 1.464 1.032 2.616v0.048c0 1.992-1.2 3.216-3.001 3.84 2.16 0.624 3.553 1.776 3.553 4.081v0.048c0 2.688-2.208 4.656-6.457 4.656h-9.312V11.7zM340.424 17.101c0-0.744-0.601-1.151-1.801-1.151H336.2v2.352h2.448c1.2 0 1.776-0.408 1.776-1.151V17.101zM339.032 21.758H336.2v2.496h2.809c1.224 0 1.848-0.504 1.848-1.225v-0.048C340.856 22.262 340.256 21.758 339.032 21.758z"/>
          </g>
          <g>
            <path fill="#FFFFFF" d="M353.792 22.55l-6.336-10.85h6.288l2.881 5.521 2.904-5.521h6.216l-6.336 10.777v6.024h-5.617V22.55z"/>
          </g>
        </g>
      </g>
    </g>
  </g>
</svg>
